<?xml version="1.0" encoding="UTF-8" standalone="no"?>
<!-- Created with Inkscape (http://www.inkscape.org/) -->

<svg
   width="210mm"
   height="297mm"
   viewBox="0 0 793.70081 1122.5197"
   version="1.1"
   id="svg1"
   xml:space="preserve"
   inkscape:version="1.4 (86a8ad7, 2024-10-11)"
   sodipodi:docname="Maison_Rose.svg"
   xmlns:inkscape="http://www.inkscape.org/namespaces/inkscape"
   xmlns:sodipodi="http://sodipodi.sourceforge.net/DTD/sodipodi-0.dtd"
   xmlns:xlink="http://www.w3.org/1999/xlink"
   xmlns="http://www.w3.org/2000/svg"
   xmlns:svg="http://www.w3.org/2000/svg"><sodipodi:namedview
     id="namedview1"
     pagecolor="#ffffff"
     bordercolor="#000000"
     borderopacity="0.25"
     inkscape:showpageshadow="2"
     inkscape:pageopacity="0.0"
     inkscape:pagecheckerboard="0"
     inkscape:deskcolor="#d1d1d1"
     inkscape:document-units="mm"
     inkscape:zoom="0.61382902"
     inkscape:cx="281.83744"
     inkscape:cy="546.56915"
     inkscape:window-width="1920"
     inkscape:window-height="1009"
     inkscape:window-x="-8"
     inkscape:window-y="-8"
     inkscape:window-maximized="1"
     inkscape:current-layer="g25" /><defs
     id="defs1"><clipPath
       clipPathUnits="userSpaceOnUse"
       id="clipPath52"><path
         id="path52"
         style="stroke-width:0.1;stroke-linecap:square;paint-order:markers fill stroke;stop-color:#000000"
         d="m -880.82767,-187.29769 h 1640.84 v 73.28155 h -1640.84 z" /></clipPath><inkscape:path-effect
       effect="bspline"
       id="path-effect9"
       is_visible="true"
       lpeversion="1.3"
       weight="33.333333"
       steps="2"
       helper_size="0"
       apply_no_weight="true"
       apply_with_weight="true"
       only_selected="false"
       uniform="false" /></defs><g
     inkscape:groupmode="layer"
     id="layer2"
     inkscape:label="Calque 2"><g
       id="g25"
       transform="matrix(0.6399601,0,0,0.6399601,96.822387,11.846635)"
       inkscape:label="maison face"
       style="stroke:#000000;fill:#ffffff"><rect
         style="fill:#234d8c;fill-opacity:1;stroke:#000000;stroke-width:0.755906;stroke-linecap:round"
         id="rect17"
         width="645.22211"
         height="491.05219"
         x="135.73271"
         y="339.08124"
         inkscape:label="mur" /><rect
         style="fill:#8cb0d7;fill-opacity:1;stroke:#000000;stroke-width:0.755906;stroke-linecap:round"
         id="rect1"
         width="128.84772"
         height="126.65292"
         x="177.04266"
         y="425.13004"
         ry="6.8849926" /><rect
         style="fill:#a0211e;fill-opacity:1;stroke:#000000;stroke-width:0.755906;stroke-linecap:round"
         id="rect2"
         width="130.32309"
         height="71.686821"
         x="321.13571"
         y="425.508"
         ry="6.8849926" /><rect
         style="fill:#ffffff;fill-opacity:1;stroke:#000000;stroke-width:0.755906;stroke-linecap:round"
         id="rect3"
         width="127.4186"
         height="126.7105"
         x="468.96347"
         y="425.508"
         ry="6.8849926" /><rect
         style="fill:#a0211e;fill-opacity:1;stroke:#000000;stroke-width:0.755906;stroke-linecap:round"
         id="rect4"
         width="118.52023"
         height="233.73065"
         x="616.20685"
         y="425.26147"
         ry="6.8849926" /><rect
         style="fill:#ff91e4;fill-opacity:1;stroke:#000000;stroke-width:0.755906;stroke-linecap:round"
         id="rect5"
         width="131.07899"
         height="173.60017"
         x="320.75775"
         y="513.91553"
         ry="6.8849926" /><rect
         style="fill:#ffffff;fill-opacity:1;stroke:#000000;stroke-width:0.755906;stroke-linecap:round"
         id="rect6"
         width="129.60361"
         height="120.37357"
         x="176.6647"
         y="567.52008"
         ry="6.8849926" /><rect
         style="fill:#a0211e;fill-opacity:1;stroke:#000000;stroke-width:0.755906;stroke-linecap:round"
         id="rect7"
         width="275.92795"
         height="86.062408"
         x="176.28674"
         y="704.23639"
         ry="6.8849926" /><rect
         style="fill:#8cb0d7;fill-opacity:1;stroke:#000000;stroke-width:0.755906;stroke-linecap:round"
         id="rect8"
         width="128.1745"
         height="223.53464"
         x="468.58551"
         y="567.14215"
         ry="6.8849926" /><rect
         style="fill:#ff91e4;fill-opacity:1;stroke:#000000;stroke-width:0.755906;stroke-linecap:round"
         id="rect9"
         width="119.27614"
         height="116.32545"
         x="615.82886"
         y="674.72925"
         ry="6.8849926" /><ellipse
         style="fill:#eeb800;fill-opacity:1;stroke:#000000;stroke-width:0.755906;stroke-linecap:round"
         id="path18"
         cx="386.29724"
         cy="461.35141"
         rx="12.786415"
         ry="12.048737" /><ellipse
         style="fill:#eeb800;fill-opacity:1;stroke:#000000;stroke-width:0.755906;stroke-linecap:round"
         id="ellipse18"
         cx="241.46652"
         cy="461.35141"
         rx="12.786415"
         ry="12.048737" /><ellipse
         style="fill:#eeb800;fill-opacity:1;stroke:#000000;stroke-width:0.755906;stroke-linecap:round"
         id="ellipse19"
         cx="533.83282"
         cy="461.35141"
         rx="12.786415"
         ry="12.048737" /><ellipse
         style="fill:#eeb800;fill-opacity:1;stroke:#000000;stroke-width:0.755906;stroke-linecap:round"
         id="ellipse20"
         cx="675.46698"
         cy="461.35141"
         rx="12.786415"
         ry="12.048737" /><ellipse
         style="fill:#eeb800;fill-opacity:1;stroke:#000000;stroke-width:0.755906;stroke-linecap:round"
         id="ellipse21"
         cx="675.46698"
         cy="703.85846"
         rx="12.786415"
         ry="12.048737" /><ellipse
         style="fill:#eeb800;fill-opacity:1;stroke:#000000;stroke-width:0.755906;stroke-linecap:round"
         id="ellipse22"
         cx="533.83282"
         cy="600.71564"
         rx="12.786415"
         ry="12.048737" /><ellipse
         style="fill:#eeb800;fill-opacity:1;stroke:#000000;stroke-width:0.755906;stroke-linecap:round"
         id="ellipse23"
         cx="386.29724"
         cy="557.9303"
         rx="12.786415"
         ry="12.048737" /><ellipse
         style="fill:#eeb800;fill-opacity:1;stroke:#000000;stroke-width:0.755906;stroke-linecap:round"
         id="ellipse24"
         cx="241.46652"
         cy="600.71564"
         rx="12.786415"
         ry="12.048737" /><ellipse
         style="fill:#eeb800;fill-opacity:1;stroke:#000000;stroke-width:0.755906;stroke-linecap:round"
         id="ellipse25"
         cx="314.25073"
         cy="747.26758"
         rx="12.786415"
         ry="12.048737" /><path
         id="rect15"
         style="display:inline;fill:#d5d5d5;fill-opacity:1;stroke:#000000;stroke-width:0.755906;stroke-linecap:round"
         d="M 59.812077,321.31604 H 468.96347 v 17.38723 H 68.505693 Z"
         sodipodi:nodetypes="ccccc"
         inkscape:label="bordtoiG" /><path
         id="path17"
         style="display:inline;fill:#d5d5d5;fill-opacity:1;stroke:#000000;stroke-width:0.755906;stroke-linecap:round"
         d="M 877.83393,321.31604 H 468.68254 v 17.38723 h 400.45777 z"
         sodipodi:nodetypes="ccccc"
         inkscape:transform-center-x="-204.43523"
         inkscape:transform-center-y="90.055623"
         inkscape:label="bordtoitD" /><path
         style="display:inline;fill:#ffffff;fill-opacity:1;stroke:#000000;stroke-width:0.755906;stroke-linecap:round"
         d="m 468.58552,153.00764 0.37795,168.3084 -409.151392,1e-5 102.773232,-168.30841 z"
         id="path15"
         sodipodi:nodetypes="ccccc"
         inkscape:label="toitG" /><path
         style="display:inline;fill:#ffffff;fill-opacity:1;stroke:#000000;stroke-width:0.755906;stroke-linecap:round"
         d="m 469.06049,153.00764 -0.37795,168.3084 409.15139,1e-5 L 775.0607,153.00764 Z"
         id="path16"
         sodipodi:nodetypes="ccccc"
         inkscape:transform-center-x="-204.43523"
         inkscape:transform-center-y="-2.7921877"
         inkscape:label="toitD" /><path
         style="fill:#ededed;fill-opacity:1;stroke:#000000;stroke-width:0.755906;stroke-linecap:round"
         d="m 194.737,279.5867 h 18.45189 l 72.53831,-118.77295 49.6703,118.52024 h 17.70427 l -63.1944,-151.96163 z"
         id="path9" /><path
         style="fill:#dbdbdb;fill-opacity:1;stroke:#000000;stroke-width:0.755906;stroke-linecap:round"
         d="m 213.18889,279.5867 25.57283,-19.67822 51.8058,-87.54507 -4.84032,-11.54966 z"
         id="path10" /><path
         style="fill:#eeb800;fill-opacity:1;stroke:#000000;stroke-width:0.755906;stroke-linecap:round"
         d="m 238.76172,259.90848 h 88.4948 l -36.689,-87.54507 z"
         id="path11" /><path
         style="fill:#ededed;fill-opacity:1;stroke:#000000;stroke-width:0.755906;stroke-linecap:round"
         d="m 729.84774,279.5867 h -18.45189 l -72.53831,-118.77295 -49.6703,118.52024 h -17.70427 l 63.1944,-151.96163 z"
         id="path12" /><path
         style="fill:#dbdbdb;fill-opacity:1;stroke:#000000;stroke-width:0.755906;stroke-linecap:round"
         d="m 711.39585,279.5867 -25.57283,-19.67822 -51.8058,-87.54507 4.84032,-11.54966 z"
         id="path13" /><path
         style="fill:#eeb800;fill-opacity:1;stroke:#000000;stroke-width:0.755906;stroke-linecap:round"
         d="m 685.82302,259.90848 h -88.4948 l 36.689,-87.54507 z"
         id="path14" /></g><g
       id="g29"
       inkscape:label="maison profil"
       transform="matrix(0.91565472,0,0,0.95229492,12.328324,3.5290772)"
       style="stroke:#000000;fill:#ffffff"><path
         id="path30"
         style="fill:#234d8c;stroke-width:0.755906;stroke-linecap:round;stroke:#000000;fill-opacity:1"
         d="m 419.77662,622.0797 137.74581,91.69055 v 356.35435 c 0,3.8142 -3.07071,6.885 -6.88499,6.885 H 295.0775 c -3.81429,0 -6.885,-3.0708 -6.885,-6.885 V 709.66874 Z"
         sodipodi:nodetypes="ccsssscc" /><g
         id="g240"><use
           id="use123"
           inkscape:spray-origin="#path86"
           xlink:href="#path86"
           transform="matrix(0.7459755,0,0,0.7459755,119.26836,142.50425)" /><use
           id="use124"
           inkscape:spray-origin="#path86"
           xlink:href="#path86"
           transform="matrix(1.0682807,0,0,1.0682807,45.884501,-60.496339)" /><use
           id="use125"
           inkscape:spray-origin="#path86"
           xlink:href="#path86"
           transform="matrix(1.2587253,0,0,1.2587253,24.115998,-214.6496)" /><use
           id="use126"
           inkscape:spray-origin="#path86"
           xlink:href="#path86"
           transform="matrix(0.52058882,0,0,0.52058882,223.8122,362.83804)" /><use
           id="use127"
           inkscape:spray-origin="#path86"
           xlink:href="#path86"
           transform="matrix(0.53217347,0,0,0.53217347,224.33637,338.20388)" /><use
           id="use128"
           inkscape:spray-origin="#path86"
           xlink:href="#path86"
           transform="matrix(0.58709473,0,0,0.58709473,161.9189,317.0947)" /><use
           id="use129"
           inkscape:spray-origin="#path86"
           xlink:href="#path86"
           transform="matrix(1.5381922,0,0,1.5381922,-67.438478,-422.06743)" /><use
           id="use130"
           inkscape:spray-origin="#path86"
           xlink:href="#path86"
           transform="matrix(1.0909878,0,0,1.0909878,82.296615,-116.67425)" /><use
           id="use131"
           inkscape:spray-origin="#path86"
           xlink:href="#path86"
           transform="matrix(1.1106401,0,0,1.1106401,60.352869,-134.70919)" /><use
           id="use132"
           inkscape:spray-origin="#path86"
           xlink:href="#path86"
           transform="matrix(1.2180688,0,0,1.2180688,6.9929823,-219.09101)" /><use
           id="use133"
           inkscape:spray-origin="#path86"
           xlink:href="#path86"
           transform="matrix(1.3647841,0,0,1.3647841,-28.707982,-279.53764)" /><use
           id="use134"
           inkscape:spray-origin="#path86"
           xlink:href="#path86"
           transform="matrix(1.5943916,0,0,1.5943916,-60.735387,-463.54272)" /><use
           id="use135"
           inkscape:spray-origin="#path86"
           xlink:href="#path86"
           transform="matrix(0.8612938,0,0,0.8612938,194.17147,113.72367)" /><use
           id="use136"
           inkscape:spray-origin="#path86"
           xlink:href="#path86"
           transform="matrix(0.52877899,0,0,0.52877899,297.74854,377.82637)" /><use
           id="use137"
           inkscape:spray-origin="#path86"
           xlink:href="#path86"
           transform="matrix(1.453185,0,0,1.453185,74.709869,-392.58762)" /><use
           id="use138"
           inkscape:spray-origin="#path86"
           xlink:href="#path86"
           transform="matrix(0.44765976,0,0,0.44765976,328.46739,419.61345)" /><use
           id="use139"
           inkscape:spray-origin="#path86"
           xlink:href="#path86"
           transform="matrix(1.4037095,0,0,1.4037095,118.09289,-312.44015)" /><use
           id="use140"
           inkscape:spray-origin="#path86"
           xlink:href="#path86"
           transform="matrix(1.3255476,0,0,1.3255476,213.8461,-262.59991)" /><use
           id="use141"
           inkscape:spray-origin="#path86"
           xlink:href="#path86"
           transform="matrix(0.45869997,0,0,0.45869997,423.74589,406.38113)" /><use
           id="use142"
           inkscape:spray-origin="#path86"
           xlink:href="#path86"
           transform="matrix(0.70404014,0,0,0.70404014,342.68466,163.66341)" /><use
           id="use143"
           inkscape:spray-origin="#path86"
           xlink:href="#path86"
           transform="matrix(0.42339935,0,0,0.42339935,419.96937,382.66004)" /><use
           id="use144"
           inkscape:spray-origin="#path86"
           xlink:href="#path86"
           transform="matrix(0.83151296,0,0,0.83151296,289.66881,78.830508)" /><use
           id="use145"
           inkscape:spray-origin="#path86"
           xlink:href="#path86"
           transform="matrix(1.4272789,0,0,1.4272789,131.26532,-390.39586)" /><use
           id="use146"
           inkscape:spray-origin="#path86"
           xlink:href="#path86"
           transform="matrix(1.5748276,0,0,1.5748276,134.17936,-528.94376)" /><use
           id="use147"
           inkscape:spray-origin="#path86"
           xlink:href="#path86"
           transform="matrix(1.3369962,0,0,1.3369962,161.96157,-373.17727)" /><use
           id="use148"
           inkscape:spray-origin="#path86"
           xlink:href="#path86"
           transform="matrix(0.89181568,0,0,0.89181568,237.82121,-19.819135)" /><use
           id="use149"
           inkscape:spray-origin="#path86"
           xlink:href="#path86"
           transform="matrix(0.96835835,0,0,0.96835835,203.80982,-52.450265)" /><use
           id="use150"
           inkscape:spray-origin="#path86"
           xlink:href="#path86"
           transform="matrix(1.1165155,0,0,1.1165155,186.85444,-216.92976)" /><use
           id="use151"
           inkscape:spray-origin="#path86"
           xlink:href="#path86"
           transform="matrix(0.71033001,0,0,0.71033001,250.56712,98.471355)" /><use
           id="use152"
           inkscape:spray-origin="#path86"
           xlink:href="#path86"
           transform="matrix(1.5859244,0,0,1.5859244,15.212576,-594.48082)" /><use
           id="use153"
           inkscape:spray-origin="#path86"
           xlink:href="#path86"
           transform="matrix(0.79050699,0,0,0.79050699,188.12145,40.782245)" /><use
           id="use154"
           inkscape:spray-origin="#path86"
           xlink:href="#path86"
           transform="matrix(0.64930275,0,0,0.64930275,253.33004,171.96245)" /><use
           id="use155"
           inkscape:spray-origin="#path86"
           xlink:href="#path86"
           transform="matrix(1.2645665,0,0,1.2645665,89.627371,-353.90818)" /><use
           id="use156"
           inkscape:spray-origin="#path86"
           xlink:href="#path86"
           transform="matrix(0.64097708,0,0,0.64097708,186.76565,174.66761)" /><use
           id="use157"
           inkscape:spray-origin="#path86"
           xlink:href="#path86"
           transform="matrix(0.85350634,0,0,0.85350634,120.2979,25.940196)" /><use
           id="use158"
           inkscape:spray-origin="#path86"
           xlink:href="#path86"
           transform="matrix(1.2045458,0,0,1.2045458,33.271537,-244.4161)" /><use
           id="use159"
           inkscape:spray-origin="#path86"
           xlink:href="#path86"
           transform="matrix(1.4195347,0,0,1.4195347,3.4301338,-420.04973)" /><use
           id="use160"
           inkscape:spray-origin="#path86"
           xlink:href="#path86"
           transform="matrix(1.3155837,0,0,1.3155837,22.67105,-330.92174)" /><use
           id="use161"
           inkscape:spray-origin="#path86"
           xlink:href="#path86"
           transform="matrix(1.3422265,0,0,1.3422265,-34.654844,-313.57229)" /><use
           id="use162"
           inkscape:spray-origin="#path86"
           xlink:href="#path86"
           transform="matrix(1.2379721,0,0,1.2379721,-6.1828638,-196.7709)" /><use
           id="use163"
           inkscape:spray-origin="#path86"
           xlink:href="#path86"
           transform="matrix(0.95989941,0,0,0.95989941,111.07283,63.95553)" /><use
           id="use164"
           inkscape:spray-origin="#path86"
           xlink:href="#path86"
           transform="matrix(0.8283317,0,0,0.8283317,179.99391,148.99715)" /><use
           id="use165"
           inkscape:spray-origin="#path86"
           xlink:href="#path86"
           transform="matrix(0.58931328,0,0,0.58931328,203.29809,369.56618)" /><use
           id="use166"
           inkscape:spray-origin="#path86"
           xlink:href="#path86"
           transform="matrix(1.1729804,0,0,1.1729804,22.69845,-66.050526)" /><use
           id="use167"
           inkscape:spray-origin="#path86"
           xlink:href="#path86"
           transform="matrix(0.95905263,0,0,0.95905263,110.31439,147.41461)" /><use
           id="use168"
           inkscape:spray-origin="#path86"
           xlink:href="#path86"
           transform="matrix(1.1496939,0,0,1.1496939,69.233266,9.8881756)" /><use
           id="use169"
           inkscape:spray-origin="#path86"
           xlink:href="#path86"
           transform="matrix(1.130269,0,0,1.130269,83.86451,-40.626114)" /><use
           id="use170"
           inkscape:spray-origin="#path86"
           xlink:href="#path86"
           transform="matrix(1.0187613,0,0,1.0187613,93.327224,56.349448)" /><use
           id="use171"
           inkscape:spray-origin="#path86"
           xlink:href="#path86"
           transform="matrix(1.0094504,0,0,1.0094504,46.848621,67.25993)" /><use
           id="use172"
           inkscape:spray-origin="#path86"
           xlink:href="#path86"
           transform="matrix(0.40873607,0,0,0.40873607,221.74644,594.77058)" /><use
           id="use173"
           inkscape:spray-origin="#path86"
           xlink:href="#path86"
           transform="matrix(0.48753197,0,0,0.48753197,238.83053,489.29074)" /><use
           id="use174"
           inkscape:spray-origin="#path86"
           xlink:href="#path86"
           transform="matrix(0.7129437,0,0,0.7129437,158.67595,275.31021)" /><use
           id="use175"
           inkscape:spray-origin="#path86"
           xlink:href="#path86"
           transform="matrix(0.8063513,0,0,0.8063513,99.731915,215.56819)" /><use
           id="use176"
           inkscape:spray-origin="#path86"
           xlink:href="#path86"
           transform="matrix(0.47446986,0,0,0.47446986,146.82561,511.22802)" /><use
           id="use177"
           inkscape:spray-origin="#path86"
           xlink:href="#path86"
           transform="matrix(0.98106457,0,0,0.98106457,66.712686,124.41548)" /><use
           id="use178"
           inkscape:spray-origin="#path86"
           xlink:href="#path86"
           transform="matrix(0.69119744,0,0,0.69119744,176.09719,397.1681)" /><use
           id="use179"
           inkscape:spray-origin="#path86"
           xlink:href="#path86"
           transform="matrix(0.66564375,0,0,0.66564375,281.25532,386.65362)" /><use
           id="use180"
           inkscape:spray-origin="#path86"
           xlink:href="#path86"
           transform="matrix(0.96243283,0,0,0.96243283,236.05688,137.58412)" /><use
           id="use181"
           inkscape:spray-origin="#path86"
           xlink:href="#path86"
           transform="matrix(0.71869926,0,0,0.71869926,320.31429,276.36145)" /><use
           id="use182"
           inkscape:spray-origin="#path86"
           xlink:href="#path86"
           transform="matrix(1.4362366,0,0,1.4362366,124.41035,-333.91516)" /><use
           id="use183"
           inkscape:spray-origin="#path86"
           xlink:href="#path86"
           transform="matrix(1.3316337,0,0,1.3316337,127.63275,-236.96875)" /><use
           id="use184"
           inkscape:spray-origin="#path86"
           xlink:href="#path86"
           transform="matrix(1.1991119,0,0,1.1991119,179.52028,-65.803892)" /><use
           id="use185"
           inkscape:spray-origin="#path86"
           xlink:href="#path86"
           transform="matrix(1.0468905,0,0,1.0468905,251.17715,27.551992)" /><use
           id="use186"
           inkscape:spray-origin="#path86"
           xlink:href="#path86"
           transform="matrix(0.9486098,0,0,0.9486098,268.68156,93.226676)" /><use
           id="use187"
           inkscape:spray-origin="#path86"
           xlink:href="#path86"
           transform="matrix(1.5528199,0,0,1.5528199,98.928009,-434.79807)" /><use
           id="use188"
           inkscape:spray-origin="#path86"
           xlink:href="#path86"
           transform="matrix(0.73306095,0,0,0.73306095,330.94991,204.50297)" /><use
           id="use189"
           inkscape:spray-origin="#path86"
           xlink:href="#path86"
           transform="matrix(0.70038881,0,0,0.70038881,353.40433,230.21657)" /><use
           id="use190"
           inkscape:spray-origin="#path86"
           xlink:href="#path86"
           transform="matrix(1.3907045,0,0,1.3907045,214.12751,-270.48347)" /><use
           id="use191"
           inkscape:spray-origin="#path86"
           xlink:href="#path86"
           transform="matrix(1.2133085,0,0,1.2133085,223.22139,-93.378039)" /><use
           id="use192"
           inkscape:spray-origin="#path86"
           xlink:href="#path86"
           transform="matrix(0.95466023,0,0,0.95466023,253.07429,115.05202)" /><use
           id="use193"
           inkscape:spray-origin="#path86"
           xlink:href="#path86"
           transform="matrix(1.2328171,0,0,1.2328171,161.90337,-81.507373)" /><use
           id="use194"
           inkscape:spray-origin="#path86"
           xlink:href="#path86"
           transform="matrix(0.91468308,0,0,0.91468308,255.82569,151.0902)" /><use
           id="use195"
           inkscape:spray-origin="#path86"
           xlink:href="#path86"
           transform="matrix(0.65239133,0,0,0.65239133,300.41741,325.0669)" /><use
           id="use196"
           inkscape:spray-origin="#path86"
           xlink:href="#path86"
           transform="matrix(1.2578961,0,0,1.2578961,195.1912,-188.51032)" /><use
           id="use197"
           inkscape:spray-origin="#path86"
           xlink:href="#path86"
           transform="matrix(0.79647686,0,0,0.79647686,330.34576,192.5978)" /><use
           id="use198"
           inkscape:spray-origin="#path86"
           xlink:href="#path86"
           transform="matrix(1.4835172,0,0,1.4835172,124.226,-348.32002)" /><use
           id="use199"
           inkscape:spray-origin="#path86"
           xlink:href="#path86"
           transform="matrix(1.5303396,0,0,1.5303396,61.170591,-429.36594)" /><use
           id="use200"
           inkscape:spray-origin="#path86"
           xlink:href="#path86"
           transform="matrix(0.82738651,0,0,0.82738651,216.36145,117.24664)" /><use
           id="use201"
           inkscape:spray-origin="#path86"
           xlink:href="#path86"
           transform="matrix(1.5769915,0,0,1.5769915,-30.712575,-453.00753)" /><use
           id="use202"
           inkscape:spray-origin="#path86"
           xlink:href="#path86"
           transform="matrix(1.5327409,0,0,1.5327409,10.747447,-364.80037)" /><use
           id="use203"
           inkscape:spray-origin="#path86"
           xlink:href="#path86"
           transform="matrix(0.50172984,0,0,0.50172984,370.0871,491.01523)" /><use
           id="use204"
           inkscape:spray-origin="#path86"
           xlink:href="#path86"
           transform="matrix(1.2439089,0,0,1.2439089,186.14014,-85.220882)" /><use
           id="use205"
           inkscape:spray-origin="#path86"
           xlink:href="#path86"
           transform="matrix(0.52262673,0,0,0.52262673,393.40504,532.55211)" /><use
           id="use206"
           inkscape:spray-origin="#path86"
           xlink:href="#path86"
           transform="matrix(1.3977245,0,0,1.3977245,190.27279,-158.69672)" /><use
           id="use207"
           inkscape:spray-origin="#path86"
           xlink:href="#path86"
           transform="matrix(0.48478136,0,0,0.48478136,413.6365,584.86396)" /><use
           id="use208"
           inkscape:spray-origin="#path86"
           xlink:href="#path86"
           transform="matrix(1.5817884,0,0,1.5817884,128.1056,-328.87033)" /><use
           id="use209"
           inkscape:spray-origin="#path86"
           xlink:href="#path86"
           transform="matrix(1.3302264,0,0,1.3302264,199.61787,-160.98889)" /><use
           id="use210"
           inkscape:spray-origin="#path86"
           xlink:href="#path86"
           transform="matrix(1.1285845,0,0,1.1285845,212.80427,41.922404)" /><use
           id="use211"
           inkscape:spray-origin="#path86"
           xlink:href="#path86"
           transform="matrix(1.1211941,0,0,1.1211941,205.59613,62.100282)" /><use
           id="use212"
           inkscape:spray-origin="#path86"
           xlink:href="#path86"
           transform="matrix(1.424237,0,0,1.424237,146.08296,-132.0645)" /><use
           id="use213"
           inkscape:spray-origin="#path86"
           xlink:href="#path86"
           transform="matrix(0.62546155,0,0,0.62546155,329.88607,454.61433)" /><use
           id="use214"
           inkscape:spray-origin="#path86"
           xlink:href="#path86"
           transform="matrix(0.59376418,0,0,0.59376418,286.01413,464.86823)" /><use
           id="use215"
           inkscape:spray-origin="#path86"
           xlink:href="#path86"
           transform="matrix(0.96977517,0,0,0.96977517,167.79892,167.17754)" /><use
           id="use216"
           inkscape:spray-origin="#path86"
           xlink:href="#path86"
           transform="matrix(1.1691496,0,0,1.1691496,122.97696,50.708352)" /><use
           id="use217"
           inkscape:spray-origin="#path86"
           xlink:href="#path86"
           transform="matrix(0.99790819,0,0,0.99790819,192.00995,181.65609)" /><use
           id="use218"
           inkscape:spray-origin="#path86"
           xlink:href="#path86"
           transform="matrix(0.57020239,0,0,0.57020239,356.50642,518.02688)" /><use
           id="use219"
           inkscape:spray-origin="#path86"
           xlink:href="#path86"
           transform="matrix(0.99094419,0,0,0.99094419,225.48392,175.33538)" /><use
           id="use220"
           inkscape:spray-origin="#path86"
           xlink:href="#path86"
           transform="matrix(0.98031203,0,0,0.98031203,202.5452,189.24581)" /><use
           id="use221"
           inkscape:spray-origin="#path86"
           xlink:href="#path86"
           transform="matrix(1.0967633,0,0,1.0967633,97.554317,47.973463)" /><use
           id="use222"
           inkscape:spray-origin="#path86"
           xlink:href="#path86"
           transform="matrix(1.2938993,0,0,1.2938993,51.929507,-85.907013)" /><use
           id="use223"
           inkscape:spray-origin="#path86"
           xlink:href="#path86"
           transform="matrix(0.65266936,0,0,0.65266936,161.51556,434.64322)" /><use
           id="use224"
           inkscape:spray-origin="#path86"
           xlink:href="#path86"
           transform="matrix(1.4113845,0,0,1.4113845,-33.670779,-131.38861)" /><use
           id="use225"
           inkscape:spray-origin="#path86"
           xlink:href="#path86"
           transform="matrix(0.52488427,0,0,0.52488427,223.81384,569.36034)" /><use
           id="use226"
           inkscape:spray-origin="#path86"
           xlink:href="#path86"
           transform="matrix(1.326841,0,0,1.326841,3.0995661,-79.805601)" /><use
           id="use227"
           inkscape:spray-origin="#path86"
           xlink:href="#path86"
           transform="matrix(0.57264558,0,0,0.57264558,167.96964,487.13195)" /><use
           id="use228"
           inkscape:spray-origin="#path86"
           xlink:href="#path86"
           transform="matrix(0.50531074,0,0,0.50531074,183.75005,575.93585)" /><use
           id="use229"
           inkscape:spray-origin="#path86"
           xlink:href="#path86"
           transform="matrix(1.13169,0,0,1.13169,18.928341,74.892848)" /><use
           id="use230"
           inkscape:spray-origin="#path86"
           xlink:href="#path86"
           transform="matrix(1.2735949,0,0,1.2735949,-1.824149,-3.9960628)" /><use
           id="use231"
           inkscape:spray-origin="#path86"
           xlink:href="#path86"
           transform="matrix(0.95905347,0,0,0.95905347,127.44302,242.67059)" /><use
           id="use232"
           inkscape:spray-origin="#path86"
           xlink:href="#path86"
           transform="matrix(1.1317602,0,0,1.1317602,137.37113,98.875613)" /><use
           id="use233"
           inkscape:spray-origin="#path86"
           xlink:href="#path86"
           transform="matrix(1.0815671,0,0,1.0815671,204.69927,158.82837)" /><use
           id="use234"
           inkscape:spray-origin="#path86"
           xlink:href="#path86"
           transform="matrix(0.97242112,0,0,0.97242112,246.79236,218.72829)" /><use
           id="use235"
           inkscape:spray-origin="#path86"
           xlink:href="#path86"
           transform="matrix(0.45616987,0,0,0.45616987,412.72195,653.57122)" /><use
           id="use236"
           inkscape:spray-origin="#path86"
           xlink:href="#path86"
           transform="matrix(0.8165384,0,0,0.8165384,333.34867,351.67425)" /><use
           id="use237"
           inkscape:spray-origin="#path86"
           xlink:href="#path86"
           transform="matrix(0.64742795,0,0,0.64742795,358.12001,508.13407)" /><use
           id="use238"
           inkscape:spray-origin="#path86"
           xlink:href="#path86"
           transform="matrix(1.5326605,0,0,1.5326605,134.28681,-224.84848)" /><use
           id="use239"
           inkscape:spray-origin="#path86"
           xlink:href="#path86"
           transform="matrix(1.4055179,0,0,1.4055179,157.29859,-102.00818)" /><use
           id="use240"
           inkscape:spray-origin="#path86"
           xlink:href="#path86"
           transform="matrix(0.48618958,0,0,0.48618958,413.21059,610.21503)" /></g><rect
         style="fill:#8cb0d7;fill-opacity:1;stroke:#000000;stroke-width:0.755906;stroke-linecap:round"
         id="rect25"
         width="102.9324"
         height="87.631607"
         x="371.39127"
         y="693.40283"
         ry="6.8849926" /><ellipse
         style="fill:#eeb800;fill-opacity:1;stroke:#000000;stroke-width:0.48375;stroke-linecap:round"
         id="ellipse25-1"
         cx="422.85745"
         cy="717.19568"
         rx="8.1827955"
         ry="7.7107105" /><rect
         style="fill:#a0211e;fill-opacity:1;stroke:#000000;stroke-width:0.755906;stroke-linecap:round"
         id="rect26"
         width="102.9324"
         height="246.8987"
         x="369.61209"
         y="802.27484"
         ry="6.8849926" /><ellipse
         style="fill:#eeb800;fill-opacity:1;stroke:#000000;stroke-width:0.48375;stroke-linecap:round"
         id="ellipse26"
         cx="422.85745"
         cy="834.56555"
         rx="8.1827955"
         ry="7.7107105" /><path
         id="rect28"
         style="fill:#ffffff;fill-opacity:1;stroke-width:0.755906;stroke-linecap:round;stroke:#000000"
         d="m 16.250297,733.15183 -246.399287,-0.27941 -6.2e-4,17.57544 234.8858001,10e-4 90.6456129,216.6886 16.213707,-6.7832 z"
         transform="rotate(-33.649735)" /><ellipse
         style="fill:#eeeeec;fill-opacity:1;stroke:none;stroke-width:0.594964;stroke-linecap:round"
         id="path86"
         cx="255.61864"
         cy="802.09167"
         rx="1.8493127"
         ry="1.7781593" /></g><path
       style="fill:#ffffff;fill-opacity:1;stroke:#888a85;stroke-width:0.755906;stroke-linecap:round"
       d="m 183.44403,504.22973 c 26.19483,0 18.18789,18.04614 38.84288,18.04614 20.74329,0 49.71188,8.06372 70.77685,8.06372 52.93665,0 61.27805,-26.25977 97.41368,-26.25977 17.70427,0 31.91583,18.19605 68.22251,18.19605 27.95496,0 43.98172,17.65667 65.58166,17.65667 21.59995,0 41.27136,-30.44308 59.95919,-30.44308 9.82951,0 12.60338,3.60776 12.60338,3.60776 l -0.24186,30.00168 H 183.6859 Z"
       id="path31"
       sodipodi:nodetypes="csssssscccc" /><path
       style="fill:#ffffff;fill-opacity:1;stroke:#888a85;stroke-width:0.755906;stroke-linecap:round"
       d="m 275.86708,989.2461 c 21.33874,0 20.76276,23.6152 32.85835,23.6152 12.09558,0 10.94362,-12.95956 26.2071,-12.95956 15.26347,0 29.17437,13.79776 64.58723,12.95956 48.67034,-1.152 57.77796,-29.88159 68.00323,-30.39939 15.41671,-0.78068 8.81269,16.28787 22.63621,16.28787 13.82353,0 17.35615,-12.95956 33.01324,-12.95956 v 43.72948 H 275.86708 Z"
       id="path32"
       sodipodi:nodetypes="cssssscccc" /></g></svg>
